<svg width="16" height="16" viewBox="0 0 16 16" fill="none" xmlns="http://www.w3.org/2000/svg">
<path d="M1.65278 4.44444V4.56944H1.77778H14.2222H14.3472V4.44444V1.77778V1.65278H14.2222H1.77778H1.65278V1.77778V4.44444ZM4.125 6.22222V6.09722H4H1.77778H1.65278V6.22222V14.2222V14.3472H1.77778H4H4.125V14.2222V6.22222ZM12 6.09722H11.875V6.22222V14.2222V14.3472H12H14.2222H14.3472V14.2222V6.22222V6.09722H14.2222H12ZM10.3472 6.22222V6.09722H10.2222H5.77778H5.65278V6.22222V14.2222V14.3472H5.77778H10.2222H10.3472V14.2222V6.22222ZM14.2222 15.875H1.77778C1.3223 15.875 0.935504 15.7143 0.610611 15.3894C0.285717 15.0645 0.125 14.6777 0.125 14.2222V1.77778C0.125 1.3223 0.285717 0.935504 0.610611 0.610611C0.935504 0.285717 1.3223 0.125 1.77778 0.125H14.2222C14.6777 0.125 15.0645 0.285717 15.3894 0.610611C15.7143 0.935504 15.875 1.3223 15.875 1.77778V14.2222C15.875 14.6777 15.7143 15.0645 15.3894 15.3894C15.0645 15.7143 14.6777 15.875 14.2222 15.875Z" fill="#404040" stroke="white" stroke-width="0.25"/>
</svg>
