<svg width="20" height="20" viewBox="0 0 20 20" fill="none" xmlns="http://www.w3.org/2000/svg">
<path d="M8.2 9.38462H5.72C5.55557 9.38462 5.39787 9.44945 5.28159 9.56486C5.16532 9.68026 5.1 9.83679 5.1 10V13.6923C5.1 13.8555 5.16532 14.012 5.28159 14.1275C5.39787 14.2429 5.55557 14.3077 5.72 14.3077H8.2M12.54 9.38462H10.06C9.89557 9.38462 9.73787 9.44945 9.62159 9.56486C9.50532 9.68026 9.44 9.83679 9.44 10V11.2308C9.44 11.394 9.50532 11.5505 9.62159 11.6659C9.73787 11.7813 9.89557 11.8462 10.06 11.8462H11.3C11.4644 11.8462 11.6221 11.911 11.7384 12.0264C11.8547 12.1418 11.92 12.2983 11.92 12.4615V13.6923C11.92 13.8555 11.8547 14.012 11.7384 14.1275C11.6221 14.2429 11.4644 14.3077 11.3 14.3077H8.82M13.78 8.76923C13.78 9.38462 15.02 14.3077 15.02 14.3077H16.26C16.26 14.3077 17.5 9.38462 17.5 8.76923M13.16 16.7692V18H2V2H9.44M9.44 2V5.69231H13.16M9.44 2H10.06L13.16 5.07692V5.69231M13.16 5.69231V7.53846" stroke="#404040" stroke-width="1.2" stroke-linejoin="round"/>
</svg>
