<svg width="24" height="24" viewBox="0 0 24 24" fill="none" xmlns="http://www.w3.org/2000/svg">
<mask id="mask0_2001_141" style="mask-type:alpha" maskUnits="userSpaceOnUse" x="0" y="0" width="24" height="24">
<rect width="24" height="24" fill="#D9D9D9"/>
</mask>
<g mask="url(#mask0_2001_141)">
<path d="M5.975 6.66667V6.56667H5.875H5.1V4.98889H9.375H9.475V4.88889V4.1H14.525V4.88889V4.98889H14.625H18.9V6.56667H18.125H18.025V6.66667V18.2222C18.025 18.6849 17.864 19.0782 17.5397 19.4076C17.2154 19.737 16.829 19.9 16.375 19.9H7.625C7.171 19.9 6.78456 19.737 6.46033 19.4076C6.13605 19.0782 5.975 18.6849 5.975 18.2222V6.66667ZM16.475 6.66667V6.56667H16.375H7.625H7.525V6.66667V18.2222V18.3222H7.625H16.375H16.475V18.2222V6.66667ZM11.025 8.54444V16.3444H9.475V8.54444H11.025ZM14.525 8.54444V16.3444H12.975V8.54444H14.525Z" fill="#E50C00" stroke="#FDF4F4" stroke-width="0.2"/>
</g>
</svg>
